<svg xmlns="http://www.w3.org/2000/svg" width="228" height="352" viewBox="0 0 228 352">
  <g transform="translate(0,352) scale(1,-1)">
    <path d="M10.4 339.8 c0.6 -2.6 3.3 -17.6 4.6 -25.3 0.5 -2.7 2.7 -14.9 4.9 -27 2.2 -12.1 5.2 -28.9 6.6 -37.4 2.4 -14.4 3.7 -18.8 5.6 -20.1 0.4 -0.3 6.3 -0.2 13.1 0.3 15.4 1 54.6 0.3 65.4 -1.2 16.7 -2.3 33.4 -8.8 58.9 -23.1 11.9 -6.7 19.6 -10.4 27.3 -13.1 3.4 -1.2 8 -3.4 10.2 -5 3.3 -2.4 4.2 -3.9 6 -10.1 5.1 -17.8 4.8 -22.5 4.9 74.5z" fill="#2c3e50"/>
    <path d="M216.2 149.8 c-0.7 -5.1 -1.2 -11.2 -1.2 -13.6 0 -3.6 -0.6 -4.7 -4 -8.1 -2.7 -2.6 -4.6 -5.6 -5.6 -9 -1.7 -6 -1 -8.2 3.6 -10.1 4 -1.7 3.5 -2.8 -2.3 -5 -5 -1.9 -13.1 -3.4 -42.3 -7.5 -10 -1.4 -24.2 -3.7 -31.5 -5 -7.4 -1.4 -21.7 -3.8 -31.9 -5.5 -10.2 -1.7 -19.5 -3.2 -20.7 -3.5 -4.8 -1.1 -3.8 -3.7 10.5 -27.7 7.7 -12.8 16.8 -28.1 20.2 -34 l6.4 -10.8 50.3 0 50.3 0 0 74.5 c0 41 -0.1 74.5 -0.3 74.5 -0.1 0 -0.8 -4.2 -1.5 -9.2z" fill="#1a252f"/>
  </g>
</svg>
